HIERARCHY
ROOT Hips
{
  OFFSET 7.333 -26.027 -164.856
  CHANNELS 6 Xposition Yposition Zposition Zrotation Xrotation Yrotation
  JOINT LeftUpLeg
  {
    OFFSET 10.092 0.000 0.000
    CHANNELS 3 Zrotation Xrotation Yrotation
    JOINT LeftLeg
    {
      OFFSET 0.000 -38.160 -0.000
    CHANNELS 3 Zrotation Xrotation Yrotation
      JOINT LeftFoot
      {
        OFFSET -0.000 -24.040 0.000
    CHANNELS 3 Zrotation Xrotation Yrotation
        End Site
        {
          OFFSET -0.000 0.000 12.945
        }
      }
    }
  }
  JOINT RightUpLeg
  {
    OFFSET -10.092 -0.000 0.000
    CHANNELS 3 Zrotation Xrotation Yrotation
    JOINT RightLeg
    {
      OFFSET 0.000 -33.046 0.000
    CHANNELS 3 Zrotation Xrotation Yrotation
      JOINT RightFoot
      {
        OFFSET 0.000 -22.031 -0.000
    CHANNELS 3 Zrotation Xrotation Yrotation
        End Site
        {
          OFFSET 0.000 -0.000 11.863
        }
      }
    }
  }
  JOINT Spine
  {
    OFFSET -0.000 16.511 0.000
    CHANNELS 3 Zrotation Xrotation Yrotation
    JOINT LeftShoulder
    {
      OFFSET 0 16.511 0
    CHANNELS 3 Zrotation Xrotation Yrotation
      JOINT LeftArm
      {
        OFFSET 16.337 0.000 0.000
    CHANNELS 3 Zrotation Xrotation Yrotation
        JOINT LeftForeArm
        {
          OFFSET 0.000 -24.030 0.000
    CHANNELS 3 Zrotation Xrotation Yrotation
          JOINT LeftHand
          {
            OFFSET 0.000 -17.629 -0.000
    CHANNELS 3 Zrotation Xrotation Yrotation
            End Site
            {
              OFFSET 0.000 -11.753 -0.000
            }
          }
        }
      }
    }
    JOINT RightShoulder
    {
      OFFSET 0 16.511 0
    CHANNELS 3 Zrotation Xrotation Yrotation
      JOINT RightArm
      {
        OFFSET -16.337 0.000 0.000
    CHANNELS 3 Zrotation Xrotation Yrotation
        JOINT RightForeArm
        {
          OFFSET -0.000 -19.534 0.000
    CHANNELS 3 Zrotation Xrotation Yrotation
          JOINT RightHand
          {
            OFFSET 0.000 -19.514 -0.000
    CHANNELS 3 Zrotation Xrotation Yrotation
            End Site
            {
              OFFSET 0.000 -13.010 -0.000
            }
          }
        }
      }
    }
    JOINT Neck
    {
      OFFSET -0.000 16.511 0.000
    CHANNELS 3 Zrotation Xrotation Yrotation
      JOINT Head
      {
        OFFSET -0.000 12.493 -0.000
    CHANNELS 3 Zrotation Xrotation Yrotation
        End Site
        {
          OFFSET -0.000 8.328 -0.000
        }
      }
    }
  }
}
MOTION
Frames: 19
Frame Time: 0.0333333
0 0 0 5.928770e-01 -7.856890e-01 -1.801550e+01 -4.001070e+00 1.350130e+01 9.355180e-01 8.586090e+00 -1.890310e+01 1.524330e+00 0 0 0 -1.379500e+00 9.843800e+00 2.358500e-01 4.323980e+00 -1.158830e+01 5.960690e-01 0 0 -1.000000e-06 1.200000e-05 -3.700000e-05 -3.700000e-05 0 0 0 4.078610e+01 -2.890310e+01 -2.353680e+01 1.092260e+02 -4.206020e+00 1.517900e+02 0 0 -1.000000e-06 0 0 0 -2.129070e+01 -5.171940e+01 6.716890e+01 -1.048870e+02 1.697370e+00 1.667270e+02 1.323489e-23 0 1.000000e-06 2.140020e-01 9.131900e-01 -3.410000e-03 0 0 -2.000000e-06 
0 0 0 5.171500e-01 -8.398400e-01 -1.805670e+01 -4.340610e+00 1.387480e+01 1.042760e+00 9.182620e+00 -1.930760e+01 1.646590e+00 0 0 0 -1.585470e+00 9.903850e+00 2.727590e-01 4.697340e+00 -1.126920e+01 6.133280e-01 0 0 1.000000e-06 -1.200000e-05 3.700000e-05 -1.230000e-04 0 0 0 3.750210e+01 -3.180070e+01 -2.920350e+01 1.127740e+02 -7.952190e+00 1.486280e+02 0 0 1.000000e-06 0 0 0 -1.490470e+01 -5.583360e+01 7.500930e+01 -1.028250e+02 -1.698970e+00 1.777520e+02 1.000000e-06 0 1.000000e-06 2.482720e-01 8.905340e-01 -3.859000e-03 0 0 1.000000e-06 
0 0 0 5.593988e-01 -9.356364e-01 -1.813016e+01 -4.362757e+00 1.406792e+01 1.062803e+00 9.067049e+00 -1.944399e+01 1.613156e+00 0 0 8.030852e-07 -1.770123e+00 1.008513e+01 3.096132e-01 4.823882e+00 -1.173610e+01 6.272978e-01 0 0 9.085255e-07 2.872792e-09 -7.091537e-07 -7.400000e-05 0 0 0 3.389524e+01 -3.451912e+01 -3.548419e+01 1.158585e+02 -1.217502e+01 1.455944e+02 -1.064109e-07 9.828132e-08 1.283978e-07 0 0 0 -6.826600e+00 -5.810082e+01 8.416996e+01 -1.019199e+02 -5.491837e+00 -1.625758e+02 -7.597884e-07 -4.476908e-08 7.585599e-07 2.694579e-01 6.340607e-01 -2.947228e-03 0 0 -4.963084e-24 
0 0 0 4.418212e-01 -1.152518e+00 -1.823199e+01 -4.536737e+00 1.444835e+01 1.134452e+00 9.437248e+00 -1.973738e+01 1.707198e+00 0 0 -2.766738e-07 -1.968575e+00 1.085218e+01 3.707658e-01 5.159200e+00 -1.285785e+01 7.179371e-01 0 0 5.405790e-07 -2.206413e-07 3.926060e-06 -8.999433e-05 0 0 0 3.002658e+01 -3.787342e+01 -4.281204e+01 1.165338e+02 -1.600746e+01 1.412696e+02 -4.587054e-08 2.080308e-08 -2.900957e-07 0 0 0 3.543462e+00 -5.839503e+01 9.563489e+01 -1.007201e+02 -9.960263e+00 -1.519936e+02 4.598322e-09 4.264603e-07 -3.021622e-07 -1.124113e-01 6.492781e-01 1.262925e-03 0 0 -9.805403e-07 
0 0 0 3.477733e-01 -1.558499e+00 -1.790357e+01 -4.042302e+00 1.484991e+01 1.037558e+00 8.531491e+00 -1.925733e+01 1.528672e+00 0 0 NaN -1.813670e+00 1.151091e+01 3.619914e-01 4.984278e+00 -1.296905e+01 7.206877e-01 0 0 NaN 5.267792e-06 -3.156429e-06 9.598294e-05 0 0 0 2.394072e+01 -4.041367e+01 -5.253694e+01 1.157472e+02 -1.918106e+01 1.366505e+02 -8.228805e-08 4.080164e-07 NaN 0 0 0 1.288287e+01 -5.775410e+01 1.058939e+02 -9.765001e+01 -1.347026e+01 -1.329615e+02 -1.371593e-07 NaN 1.541618e-07 -1.373820e-01 -7.065524e-02 -2.247348e-04 0 0 8.114860e-08 
0 0 0 8.746656e-02 -2.033989e+00 -1.777544e+01 -3.851694e+00 1.632847e+01 1.084712e+00 8.496967e+00 -2.092773e+01 1.718612e+00 0 0 -4.517470e-08 -1.392328e+00 1.250928e+01 3.017584e-01 4.500425e+00 -1.351174e+01 7.357572e-01 0 0 NaN NaN -2.056968e-06 -1.898191e-05 0 0 0 1.837829e+01 -4.232426e+01 -6.159789e+01 1.144182e+02 -2.260260e+01 1.312560e+02 -6.792039e-08 NaN NaN 0 0 0 1.727983e+01 -5.592367e+01 1.109361e+02 -9.658746e+01 -1.736865e+01 -1.248776e+02 -2.496774e-07 NaN -4.888876e-08 -3.035543e-02 -5.571277e-01 -2.916284e-04 0 0 6.834688e-07 
0 0 0 -1.035893e-01 -2.203960e+00 -1.847289e+01 -4.167438e+00 1.705094e+01 1.223025e+00 9.190814e+00 -2.136130e+01 1.903420e+00 0 0 4.189828e-08 -1.528707e+00 1.337460e+01 3.531888e-01 4.907934e+00 -1.417767e+01 8.386984e-01 0 0 2.178114e-08 NaN -1.705567e-06 6.499111e-05 0 0 0 1.392995e+01 -4.132745e+01 -6.801268e+01 1.144860e+02 -2.568238e+01 1.288106e+02 -4.545133e-08 NaN 1.480594e-09 0 0 0 2.212310e+01 -5.293392e+01 1.168598e+02 -9.413210e+01 -2.001885e+01 -1.165452e+02 NaN 4.772775e-09 3.550095e-08 -2.069237e-02 -1.158307e+00 -2.820237e-04 0 0 NaN 
0 0 0 -2.320485e-01 -2.354126e+00 -1.993363e+01 -4.090108e+00 1.730964e+01 1.219840e+00 8.930989e+00 -2.082740e+01 1.789898e+00 0 0 2.277776e-08 -1.886831e+00 1.369700e+01 4.445747e-01 5.665950e+00 -1.417047e+01 9.358452e-01 0 0 -1.331783e-08 1.201599e-08 -1.154727e-06 -2.488050e-05 0 0 0 1.228215e+01 -3.687847e+01 -6.834350e+01 1.169010e+02 -3.211180e+01 1.272354e+02 -5.053053e-08 -9.993857e-08 1.238757e-07 0 0 0 2.083387e+01 -4.923724e+01 1.166131e+02 -9.492109e+01 -2.606061e+01 -1.151384e+02 NaN 1.227202e-08 -1.251704e-07 2.281934e-01 -1.711176e+00 5.653994e-03 0 0 NaN 
0 0 0 -4.252517e-01 -1.874364e+00 -1.970080e+01 -3.700854e+00 1.739907e+01 1.108312e+00 8.959249e+00 -2.113940e+01 1.935452e+00 0 0 2.052931e-08 -1.397412e+00 1.369215e+01 3.376499e-01 5.432904e+00 -1.490107e+01 1.044960e+00 0 0 -1.905714e-07 -2.310131e-07 -2.334501e-07 4.601828e-05 0 0 0 1.262378e+01 -3.209447e+01 -6.445982e+01 1.222004e+02 -3.960094e+01 1.292106e+02 -5.369809e-08 5.058133e-08 NaN 0 0 0 1.426807e+01 -4.412145e+01 1.103756e+02 -9.960990e+01 -3.150784e+01 -1.187058e+02 -1.231541e-07 -3.929296e-08 -5.958317e-08 2.588010e-01 -1.671896e+00 NaN 0 0 1.177930e-07 
0 0 0 -6.153362e-01 -2.091292e+00 -1.952495e+01 -3.120552e+00 1.784485e+01 9.552828e-01 8.313423e+00 -2.151446e+01 1.955423e+00 0 0 -5.302360e-09 -9.702038e-01 1.397156e+01 2.466502e-01 5.162534e+00 -1.522661e+01 1.102875e+00 0 0 NaN 4.366333e-07 -8.163169e-07 -6.368558e-05 0 0 0 1.251387e+01 -2.810517e+01 -6.106874e+01 1.281355e+02 -4.431230e+01 1.333386e+02 -1.849221e-08 6.775386e-08 1.530357e-07 0 0 0 1.016430e+01 -4.066098e+01 1.060375e+02 -1.024560e+02 -3.607401e+01 -1.201759e+02 -1.025696e-07 -4.407336e-08 -3.227854e-07 2.435956e-01 -1.861729e+00 2.983936e-03 0 0 1.497817e-07 
0 0 0 -8.060947e-01 -1.772098e+00 -1.881995e+01 -2.555164e+00 1.788484e+01 7.835792e-01 8.478610e+00 -2.206578e+01 2.266334e+00 0 0 -2.667117e-09 -4.021628e-01 1.429046e+01 1.468935e-01 5.009609e+00 -1.624467e+01 1.246644e+00 0 0 -5.013481e-08 2.928757e-07 -4.784134e-07 5.000000e-06 0 0 0 1.165391e+01 -2.650580e+01 -6.126680e+01 1.307910e+02 -4.590570e+01 1.354813e+02 -1.177088e-07 4.060552e-08 1.383638e-07 0 0 0 7.559472e+00 -3.768854e+01 1.031754e+02 -1.057661e+02 -3.750534e+01 -1.218335e+02 -9.776178e-08 -3.699326e-08 NaN 2.057765e-01 -1.812199e+00 2.746030e-03 0 0 -1.266504e-07 
0 0 0 -8.704461e-01 -2.148309e+00 -1.713587e+01 -1.627552e+00 1.822314e+01 5.088638e-01 6.862349e+00 -2.222960e+01 2.016900e+00 0 0 4.709186e-07 -1.278915e-01 1.446978e+01 1.126937e-01 4.702643e+00 -1.535082e+01 1.219497e+00 0 0 3.362575e-08 3.394587e-07 -3.549982e-07 -1.876511e-07 0 0 0 1.075578e+01 -2.690813e+01 -6.334335e+01 1.297546e+02 -4.630842e+01 1.342538e+02 -1.378068e-07 1.741455e-07 NaN 0 0 0 5.332819e+00 -3.550421e+01 1.001845e+02 -1.081744e+02 -3.799576e+01 -1.230276e+02 -9.323505e-08 -3.798716e-08 NaN 1.056738e-01 -1.832435e+00 2.341166e-03 0 0 -2.139532e-07 
0 0 0 -8.720883e-01 -2.285508e+00 -1.637940e+01 -1.506372e+00 1.771109e+01 4.581910e-01 6.702160e+00 -2.088400e+01 1.882270e+00 0 0 NaN -5.169223e-02 1.533055e+01 5.330528e-02 4.791138e+00 -1.610081e+01 1.264794e+00 0 0 -7.765584e-08 1.815883e-07 -9.125463e-07 -3.097759e-07 0 0 0 7.009931e+00 -3.148607e+01 -7.513507e+01 1.193709e+02 -3.847841e+01 1.270140e+02 NaN 9.771584e-08 7.453986e-08 0 0 0 6.824335e+00 -3.632875e+01 1.021245e+02 -1.058072e+02 -3.534998e+01 -1.222922e+02 -9.986675e-08 6.883333e-09 2.460354e-08 1.860642e-01 -1.934702e+00 -8.681518e-04 0 0 -4.085468e-07 
0 0 0 -7.269337e-01 -2.262642e+00 -1.693489e+01 -1.738556e+00 1.770499e+01 5.297189e-01 6.861973e+00 -2.108240e+01 1.872610e+00 0 0 NaN -7.767250e-02 1.561274e+01 4.896538e-02 4.512662e+00 -1.635479e+01 1.222581e+00 0 0 -7.912474e-08 4.562250e-08 -3.569342e-07 -2.475071e-05 0 0 0 5.659660e+00 -3.500028e+01 -7.939115e+01 1.147920e+02 -3.304030e+01 1.243390e+02 -1.399655e-07 4.517447e-08 1.476812e-07 0 0 0 1.066268e+01 -3.995090e+01 1.065217e+02 -1.021023e+02 -3.182352e+01 -1.199157e+02 -1.055764e-07 -4.913629e-08 2.226402e-07 1.986487e-01 -1.826446e+00 -5.661646e-04 0 0 NaN 
0 0 0 -6.351235e-01 -1.970080e+00 -1.735532e+01 -2.264151e+00 1.675896e+01 6.472651e-01 7.881733e+00 -2.041845e+01 1.998100e+00 0 0 1.107168e-07 -4.348101e-01 1.495096e+01 7.363445e-02 5.241639e+00 -1.644833e+01 1.290762e+00 0 0 -5.774662e-08 4.407327e-07 -6.015392e-07 -5.769405e-05 0 0 0 5.380390e+00 -3.824435e+01 -8.095188e+01 1.137893e+02 -2.862511e+01 1.260126e+02 NaN 1.206963e-07 -5.273857e-09 0 0 0 1.342965e+01 -4.455975e+01 1.089026e+02 -1.010101e+02 -2.959347e+01 -1.206101e+02 -1.040661e-07 -4.561244e-08 -1.389974e-07 2.846660e-01 -1.583463e+00 -1.080010e-03 0 0 NaN 
0 0 0 -6.157564e-01 -1.955017e+00 -1.802572e+01 -2.389240e+00 1.556684e+01 6.455596e-01 7.680900e+00 -1.791720e+01 1.658160e+00 0 0 1.798610e-08 -7.203706e-01 1.433113e+01 1.520782e-01 5.436915e+00 -1.532183e+01 1.117499e+00 0 0 -1.180417e-07 4.556485e-07 -9.260455e-07 -7.050928e-05 0 0 0 6.682823e+00 -4.084496e+01 -7.941653e+01 1.118149e+02 -2.590140e+01 1.254160e+02 NaN 1.416353e-07 6.539932e-08 0 0 0 1.728487e+01 -4.881142e+01 1.125959e+02 -9.859624e+01 -2.579195e+01 -1.210824e+02 -5.157118e-09 -2.056150e-08 NaN 2.057069e-01 -1.214917e+00 -4.014348e-03 0 0 7.677733e-07 
0 0 0 -5.239178e-01 -1.986814e+00 -1.812827e+01 -2.386227e+00 1.551096e+01 6.355527e-01 7.219684e+00 -1.758480e+01 1.487050e+00 0 0 -3.579258e-08 -9.404783e-01 1.414618e+01 2.410889e-01 5.692331e+00 -1.543095e+01 NaN 0 0 -8.511164e-08 2.594828e-07 -1.212897e-06 6.382290e-05 0 0 0 9.813549e+00 -4.201449e+01 -7.461429e+01 1.109360e+02 -2.452339e+01 1.249608e+02 -3.516716e-08 7.617210e-08 1.380533e-07 0 0 0 1.919166e+01 -5.275768e+01 1.134054e+02 -9.809430e+01 -2.320374e+01 -1.214064e+02 -9.089366e-08 -1.518108e-07 9.973007e-08 3.222868e-01 -9.001945e-01 -3.732731e-03 0 0 8.837798e-08 
0 0 0 -4.398824e-01 -2.059120e+00 -1.819436e+01 -2.220649e+00 1.561589e+01 5.992594e-01 6.527622e+00 -1.810643e+01 1.365869e+00 0 0 -1.275097e-07 -6.963227e-01 1.372158e+01 2.065636e-01 4.735976e+00 -1.476643e+01 1.091309e+00 0 0 3.312812e-08 9.646500e-07 -3.743060e-06 1.099837e-05 0 0 0 1.531558e+01 -4.184349e+01 -6.597533e+01 1.130795e+02 -2.496072e+01 1.271511e+02 -8.528316e-08 -4.311221e-08 NaN 0 0 0 1.610270e+01 -5.470195e+01 1.098871e+02 -9.988290e+01 -2.202589e+01 -1.240353e+02 -5.351877e-08 -1.294877e-07 2.467049e-08 3.705187e-01 -4.605245e-01 -6.774239e-04 0 0 1.537186e-07 
0 0 0 -1.529103e-01 -1.565632e+00 -1.899645e+01 -2.510668e+00 1.435721e+01 6.207974e-01 6.730763e+00 -1.672330e+01 1.240980e+00 0 0 -4.508728e-09 -1.291365e+00 1.295011e+01 2.496225e-01 5.574390e+00 -1.424391e+01 1.030403e+00 0 0 2.763989e-08 6.613366e-07 -2.420435e-06 -5.000000e-06 0 0 0 2.219906e+01 -3.969391e+01 -5.467121e+01 1.166018e+02 -2.462066e+01 1.319422e+02 -8.473414e-08 -5.854490e-08 1.115590e-07 0 0 0 1.104649e+01 -5.769786e+01 1.040938e+02 -9.978819e+01 -2.052320e+01 -1.268418e+02 -8.455268e-08 NaN -1.957116e-08 1.662877e-01 -1.802989e-01 2.438888e-04 0 0 -2.888970e-07 
